<svg width="137" height="59" viewBox="0 0 137 59" fill="none" xmlns="http://www.w3.org/2000/svg">
<g clip-path="url(#clip0_6_47)">
<path d="M49.7001 20.1347H42.7542L44.6448 12.6686H51.5907L49.7001 20.1347Z" fill="#007F40"/>
<path d="M47.6041 28.7046H40.6569L42.5481 21.2378H49.494L47.6041 28.7046Z" fill="#007F40"/>
<path d="M41.9324 18.1833H36.8021L38.1988 12.6688H43.3291L41.9324 18.1833Z" fill="#007F40"/>
<path d="M40.3301 24.9723H35.1991L36.5958 19.4571H41.7268L40.3301 24.9723Z" fill="#007F40"/>
<path d="M35.6417 17.2509H31.3797L32.5396 12.6686H36.8023L35.6417 17.2509Z" fill="#007F40"/>
<mask id="mask0_6_47" style="mask-type:luminance" maskUnits="userSpaceOnUse" x="0" y="0" width="137" height="59">
<path d="M0 0H137V59H0V0Z" fill="white"/>
</mask>
<g mask="url(#mask0_6_47)">
<path d="M72.766 38.4025H46.9199L44.9236 46.2987H72.766C78.6309 46.2987 83.5387 42.1359 84.7998 36.5565H76.4643C75.6175 37.6814 74.2756 38.4025 72.766 38.4025Z" fill="#312782"/>
<path d="M73.0953 20.7143L59.2642 20.7635L61.6212 10.961H73.0953C75.6559 10.961 77.7311 13.3904 77.7311 15.9956C77.7311 18.6021 75.6559 20.7143 73.0953 20.7143ZM81.6806 25.0305C84.0025 22.7446 85.4475 19.5428 85.4475 15.9956C85.4475 9.05329 79.9166 3.05299 73.0953 3.05299H53.7816H53.6844H24.5073C12.7742 3.05299 3.26184 12.7336 3.26184 24.6752C3.26184 36.6181 12.7742 46.2987 24.5073 46.2987H43.121L44.9686 38.4025H24.5073C17.059 38.4025 11.0213 32.2567 11.0213 24.6752C11.0213 17.095 17.059 10.9492 24.5073 10.9492H53.6844L53.7816 10.961L49.3271 28.7042H72.7659C74.4849 28.7042 75.984 29.7944 76.7839 31.2989H84.8858C84.4226 28.893 83.2842 26.733 81.6806 25.0305Z" fill="#312782"/>
<path d="M115.8 21.0543H115.63H112.735H101.524H98.6282C96.0676 21.0543 93.9911 18.9408 93.9911 16.3349C93.9911 13.7284 96.0676 11.6149 98.6282 11.6149V11.609H127.546L129.471 3.71156H98.6282H98.4586C91.6086 3.71156 86.0562 9.36376 86.0562 16.3349C86.0562 23.3055 91.6086 28.957 98.4586 28.957H98.6282H101.524H112.735H115.63C117.339 28.957 118.831 29.8984 119.635 31.2986H127.979C126.886 25.4655 121.85 21.0543 115.8 21.0543Z" fill="#312782"/>
<path d="M115.63 38.3961V38.4026H86.1581L84.2336 46.2988H115.63H115.8C121.676 46.2988 126.594 42.1393 127.875 36.5559H119.302C118.454 37.6743 117.125 38.3961 115.63 38.3961Z" fill="#312782"/>
<path d="M23.6294 37.3033C17.8806 37.3033 11.9766 31.5613 11.9766 24.6052C11.9766 23.3904 12.1194 22.215 12.3856 21.1019C12.3856 21.1019 14.7042 30.5524 23.6294 30.5524H133.738L131.403 37.3033H23.6294Z" fill="#007F40"/>
<path d="M23.302 55.9469C21.8621 55.9469 20.849 55.0187 20.849 53.6695C20.849 52.8842 21.1543 52.2201 21.7552 51.6996C22.4108 51.128 23.2178 50.8998 24.2929 50.8998C24.7568 50.8998 25.2141 50.9575 25.6557 51.0775L25.5109 51.971C25.0686 51.8707 24.6811 51.8209 24.3308 51.8209C22.8675 51.8209 21.9991 52.5708 21.9991 53.684C21.9991 54.5119 22.555 55.0049 23.5075 55.0049C24.0489 55.0049 24.6354 54.7978 25.1306 54.4051L24.9323 55.5897C24.4221 55.8257 23.8656 55.9469 23.302 55.9469Z" fill="#007F40"/>
<path d="M26.7001 50.9854H29.9373L29.8003 51.8488H27.682L27.5071 52.9632H29.3814L29.2444 53.7912H27.378L27.1718 55.0617H29.8844L29.7546 55.8615H25.9232L26.7001 50.9854Z" fill="#007F40"/>
<path d="M31.8351 55.0762C32.3146 55.0762 32.6114 54.8337 32.6114 54.5262C32.6114 54.1552 32.2232 53.9913 31.6211 53.6268C30.9811 53.2413 30.6614 52.8349 30.6614 52.3708C30.6614 51.5566 31.4156 50.9069 32.5279 50.9069C33.0002 50.9069 33.4725 51.021 33.9677 51.257L33.7922 52.1348C33.3199 51.8922 32.9167 51.7709 32.5579 51.7709C32.0941 51.7709 31.8044 51.9846 31.8044 52.2632C31.8044 52.6199 32.2311 52.749 32.8019 53.1338C33.3969 53.5337 33.7244 53.8556 33.7244 54.4194C33.7244 55.3116 33.0074 55.9468 31.9492 55.9468C31.3399 55.9468 30.7834 55.7829 30.2126 55.4466L30.3796 54.5905C30.9511 54.9045 31.4156 55.0762 31.8351 55.0762Z" fill="#007F40"/>
<path d="M36.2078 51.8139H34.5318L34.6538 50.9852H39.1259L39.0032 51.8139H37.3501L36.7029 55.8619H35.56L36.2078 51.8139Z" fill="#007F40"/>
<path d="M40.9388 54.084L40.6406 52.2202L39.758 54.084H40.9388ZM40.1768 50.9852H41.4489L42.3251 55.8618H41.2278L41.0529 54.7979H39.4298L38.9353 55.8618H37.6932L40.1768 50.9852Z" fill="#007F40"/>
<path d="M44.2148 55.0762C44.6949 55.0762 44.9917 54.8337 44.9917 54.5262C44.9917 54.1552 44.6036 53.9913 44.0014 53.6268C43.3614 53.2413 43.0418 52.8349 43.0418 52.3708C43.0418 51.5566 43.7959 50.9069 44.9076 50.9069C45.3806 50.9069 45.8522 51.021 46.348 51.257L46.1719 52.1348C45.7002 51.8922 45.2964 51.7709 44.9382 51.7709C44.4738 51.7709 44.1841 51.9846 44.1841 52.2632C44.1841 52.6199 44.6108 52.749 45.1822 53.1338C45.7766 53.5337 46.1041 53.8556 46.1041 54.4194C46.1041 55.3116 45.3877 55.9468 44.3289 55.9468C43.7196 55.9468 43.1631 55.7829 42.5923 55.4466L42.7599 54.5905C43.3314 54.9045 43.7959 55.0762 44.2148 55.0762Z" fill="#007F40"/>
<path d="M50.9414 52.899C51.5279 52.899 51.8176 52.7063 51.8176 52.2992C51.8176 51.9209 51.5429 51.7282 50.9949 51.7282H50.5304L50.3471 52.899H50.9414ZM50.8957 55.0905C51.6121 55.0905 51.9924 54.8119 51.9924 54.3484C51.9924 53.784 51.5964 53.6339 50.7281 53.6339H50.2257L49.9896 55.0905H50.8957ZM49.5173 50.9854H50.5148C51.1463 50.9854 51.6421 50.9854 52.0002 51.093C52.5717 51.2568 52.892 51.6567 52.892 52.1845C52.892 52.6565 52.6402 53.0131 52.1757 53.2058C52.7857 53.4412 53.1132 53.8764 53.1132 54.4192C53.1132 54.8191 52.9299 55.1764 52.5795 55.4472C52.1379 55.79 51.5586 55.8621 50.7437 55.8621H48.7396L49.5173 50.9854Z" fill="#007F40"/>
<path d="M55.7263 50.5213L56.549 49.3079H57.3403L56.2136 50.5213H55.7263ZM56.3356 54.0842L56.0388 52.2205L55.1548 54.0842H56.3356ZM55.5736 50.9854H56.8458L57.7219 55.8615H56.6246L56.4491 54.7975H54.8267L54.3322 55.8615H53.09L55.5736 50.9854Z" fill="#007F40"/>
<path d="M59.6113 55.0762C60.0915 55.0762 60.3883 54.8337 60.3883 54.5262C60.3883 54.1552 59.9995 53.9913 59.398 53.6268C58.7586 53.2413 58.4383 52.8349 58.4383 52.3708C58.4383 51.5566 59.1925 50.9069 60.3041 50.9069C60.7771 50.9069 61.2494 51.021 61.7446 51.257L61.5691 52.1348C61.0968 51.8922 60.6929 51.7709 60.3354 51.7709C59.8703 51.7709 59.5813 51.9846 59.5813 52.2632C59.5813 52.6199 60.0073 52.749 60.5788 53.1338C61.1731 53.5337 61.5006 53.8556 61.5006 54.4194C61.5006 55.3116 60.7849 55.9468 59.7255 55.9468C59.1161 55.9468 58.5603 55.7829 57.9888 55.4466L58.1571 54.5905C58.728 54.9045 59.1925 55.0762 59.6113 55.0762Z" fill="#007F40"/>
<path d="M62.8875 50.9854H64.0455L63.2679 55.8615H62.1177L62.8875 50.9854Z" fill="#007F40"/>
<path d="M66.8942 55.9469C65.4544 55.9469 64.4413 55.0187 64.4413 53.6695C64.4413 52.8842 64.7459 52.2201 65.3481 51.6996C66.0031 51.128 66.8114 50.8998 67.8852 50.8998C68.3497 50.8998 68.8064 50.9575 69.248 51.0775L69.1039 51.971C68.6615 51.8707 68.2734 51.8209 67.923 51.8209C66.4604 51.8209 65.5914 52.5708 65.5914 53.684C65.5914 54.5119 66.1479 55.0049 67.1004 55.0049C67.6412 55.0049 68.2277 54.7978 68.7229 54.4051L68.5252 55.5897C68.0144 55.8257 67.4585 55.9469 66.8942 55.9469Z" fill="#007F40"/>
<path d="M72.2582 54.084L71.9607 52.2202L71.0767 54.084H72.2582ZM71.4968 50.9852H72.7677L73.6445 55.8618H72.5472L72.3717 54.7979H70.7492L70.2547 55.8618H69.0126L71.4968 50.9852Z" fill="#007F40"/>
<path d="M75.5335 55.0762C76.0136 55.0762 76.3105 54.8337 76.3105 54.5262C76.3105 54.1552 75.9223 53.9913 75.3202 53.6268C74.6808 53.2413 74.3612 52.8349 74.3612 52.3708C74.3612 51.5566 75.1153 50.9069 76.2263 50.9069C76.6993 50.9069 77.1723 51.021 77.6674 51.257L77.4919 52.1348C77.019 51.8922 76.6158 51.7709 76.2576 51.7709C75.7925 51.7709 75.5035 51.9846 75.5035 52.2632C75.5035 52.6199 75.9295 52.749 76.5016 53.1338C77.0959 53.5337 77.4228 53.8556 77.4228 54.4194C77.4228 55.3116 76.7071 55.9468 75.6483 55.9468C75.039 55.9468 74.4831 55.7829 73.911 55.4466L74.0793 54.5905C74.6502 54.9045 75.1153 55.0762 75.5335 55.0762Z" fill="#007F40"/>
<path d="M81.5979 55.0762C82.0774 55.0762 82.3743 54.8337 82.3743 54.5262C82.3743 54.1552 81.9868 53.9913 81.3853 53.6268C80.7453 53.2413 80.425 52.8349 80.425 52.3708C80.425 51.5566 81.1791 50.9069 82.2908 50.9069C82.7637 50.9069 83.2361 51.021 83.7312 51.257L83.5557 52.1348C83.0834 51.8922 82.6796 51.7709 82.3221 51.7709C81.8569 51.7709 81.5679 51.9846 81.5679 52.2632C81.5679 52.6199 81.9939 52.749 82.5654 53.1338C83.1597 53.5337 83.4872 53.8556 83.4872 54.4194C83.4872 55.3116 82.7709 55.9468 81.7128 55.9468C81.1028 55.9468 80.5469 55.7829 79.9755 55.4466L80.1431 54.5905C80.7146 54.9045 81.1791 55.0762 81.5979 55.0762Z" fill="#007F40"/>
<path d="M85.3689 53.6339C85.3689 54.5052 85.8647 55.0263 86.6574 55.0263C87.662 55.0263 88.4168 54.2692 88.4168 53.156C88.4168 52.3707 87.8682 51.8141 87.1219 51.8141C86.1231 51.8141 85.3689 52.5778 85.3689 53.6339ZM84.9579 51.8141C85.5287 51.2287 86.3214 50.9068 87.1753 50.9068C87.7755 50.9068 88.287 51.0425 88.6987 51.3356C89.2695 51.7355 89.5892 52.3772 89.5892 53.1128C89.5892 53.8627 89.3302 54.5334 88.8428 55.0263C88.2485 55.6327 87.4872 55.9395 86.6039 55.9395C85.9939 55.9395 85.4909 55.8045 85.0871 55.5187C84.5319 55.126 84.1959 54.4547 84.1959 53.7336C84.1959 52.9699 84.4477 52.3353 84.9579 51.8141Z" fill="#007F40"/>
<path d="M91.9367 53.1199C92.7365 53.1199 93.1175 52.9271 93.1175 52.442C93.1175 51.9916 92.7821 51.7851 92.0887 51.7851C91.9745 51.7851 91.8525 51.7851 91.7148 51.7989L91.5093 53.1061C91.662 53.1126 91.8068 53.1199 91.9367 53.1199ZM90.7174 50.9854H91.9132C92.6295 50.9854 93.1396 51.0214 93.4828 51.1925C93.9695 51.4357 94.267 51.892 94.267 52.4132C94.267 53.0845 93.8553 53.5702 93.1396 53.7197C93.475 53.8908 93.8638 54.6191 94.4346 55.862H93.231C92.82 55.0832 92.576 54.5621 92.4083 54.3195C92.1956 54.0127 91.9588 53.8908 91.5707 53.8908C91.5093 53.8908 91.4487 53.8908 91.3802 53.898L91.0683 55.862H89.9404L90.7174 50.9854Z" fill="#007F40"/>
<path d="M95.9592 53.6339C95.9592 54.5052 96.4544 55.0263 97.2464 55.0263C98.2517 55.0263 99.0058 54.2692 99.0058 53.156C99.0058 52.3707 98.4572 51.8141 97.7109 51.8141C96.7127 51.8141 95.9592 52.5778 95.9592 53.6339ZM95.5476 51.8141C96.1191 51.2287 96.911 50.9068 97.765 50.9068C98.3658 50.9068 98.8767 51.0425 99.2877 51.3356C99.8591 51.7355 100.179 52.3772 100.179 53.1128C100.179 53.8627 99.9198 54.5334 99.4325 55.0263C98.8382 55.6327 98.0768 55.9395 97.1929 55.9395C96.5835 55.9395 96.0806 55.8045 95.6767 55.5187C95.1209 55.126 94.7856 54.4547 94.7856 53.7336C94.7856 52.9699 95.0374 52.3353 95.5476 51.8141Z" fill="#007F40"/>
<path d="M103.12 55.9469C101.68 55.9469 100.667 55.0187 100.667 53.6695C100.667 52.8842 100.972 52.2201 101.574 51.6996C102.228 51.128 103.036 50.8998 104.111 50.8998C104.574 50.8998 105.032 50.9575 105.474 51.0775L105.329 51.971C104.887 51.8707 104.499 51.8209 104.149 51.8209C102.686 51.8209 101.817 52.5708 101.817 53.684C101.817 54.5119 102.373 55.0049 103.325 55.0049C103.867 55.0049 104.454 54.7978 104.948 54.4051L104.75 55.5897C104.24 55.8257 103.683 55.9469 103.12 55.9469Z" fill="#007F40"/>
<path d="M108.483 54.084L108.187 52.2202L107.302 54.084H108.483ZM107.722 50.9852H108.994L109.87 55.8618H108.773L108.598 54.7979H106.976L106.48 55.8618H105.238L107.722 50.9852Z" fill="#007F40"/>
<path d="M112.422 52.899C113.009 52.899 113.298 52.7063 113.298 52.2992C113.298 51.9209 113.024 51.7282 112.475 51.7282H112.011L111.828 52.899H112.422ZM112.377 55.0905C113.093 55.0905 113.473 54.8119 113.473 54.3484C113.473 53.784 113.077 53.6339 112.209 53.6339H111.706L111.47 55.0905H112.377ZM110.998 50.9854H111.996C112.627 50.9854 113.123 50.9854 113.481 51.093C114.053 51.2568 114.372 51.6567 114.372 52.1845C114.372 52.6565 114.121 53.0131 113.657 53.2058C114.266 53.4412 114.593 53.8764 114.593 54.4192C114.593 54.8191 114.411 55.1764 114.06 55.4472C113.618 55.79 113.039 55.8621 112.224 55.8621H110.221L110.998 50.9854Z" fill="#007F40"/>
<path d="M117.816 54.084L117.519 52.2202L116.635 54.084H117.816ZM117.054 50.9852H118.327L119.202 55.8618H118.105L117.931 54.7979H116.308L115.813 55.8618H114.57L117.054 50.9852Z" fill="#007F40"/>
</g>
</g>
<defs>
<clipPath id="clip0_6_47">
<rect width="137" height="59" fill="white"/>
</clipPath>
</defs>
</svg>
